<svg xmlns="http://www.w3.org/2000/svg" width="929.5" height="417.9" viewBox="0 0 929.5 417.9" font-family="sans-serif" font-size="11">
<defs><clipPath id="frame"><rect x="0" y="24" width="929.5" height="357.9"/></clipPath></defs>
<rect width="100%" height="100%" fill="#fff"/>
<rect x="0" y="24" width="929.5" height="357.9" fill="#f1f2f5"/>
<g clip-path="url(#frame)">
<rect x="-1485.5" y="44.2" width="955.2" height="307.1" fill="#fff" stroke="#5c6680" stroke-width="1"/>
<text x="-1481.5" y="55.2" font-size="9" fill="#5c6680">developer</text>
<rect x="1658.7" y="44.2" width="955.2" height="307.1" fill="#fff" stroke="#5c6680" stroke-width="1"/>
<text x="1662.7" y="55.2" font-size="9" fill="#5c6680">browser-graphics</text>
<rect x="-1485.5" y="561.6" width="955.2" height="251.2" fill="#fff" stroke="#5c6680" stroke-width="1"/>
<text x="-1481.5" y="572.6" font-size="9" fill="#5c6680">source-repository</text>
<rect x="-12.9" y="-75.2" width="955.2" height="497.5" fill="none" stroke="#9aa3b5" stroke-width="1"/>
<rect x="32" y="49.3" width="277.8" height="142.3" fill="#fff" stroke="#5c6680" stroke-width="1"/>
<text x="36" y="60.3" font-size="9" fill="#5c6680">architecture-model</text>
<rect x="325.8" y="56" width="277.8" height="128.9" fill="#fff" stroke="#5c6680" stroke-width="1"/>
<text x="329.8" y="67" font-size="9" fill="#5c6680">rust-renderer</text>
<rect x="619.7" y="60.9" width="277.8" height="119.1" fill="#fff" stroke="#5c6680" stroke-width="1"/>
<text x="623.7" y="71.9" font-size="9" fill="#5c6680">scene-compiler</text>
<rect x="32" y="219.2" width="277.8" height="119.1" fill="#fff" stroke="#5c6680" stroke-width="1"/>
<text x="36" y="230.2" font-size="9" fill="#5c6680">tooling</text>
<rect x="325.8" y="207.6" width="277.8" height="142.3" fill="#fff" stroke="#5c6680" stroke-width="1"/>
<text x="329.8" y="218.6" font-size="9" fill="#5c6680">web-app</text>
<rect x="426.4" y="30.1" width="76.7" height="14.8" fill="#fff" stroke="#b0b0b0" stroke-dasharray="2 2"/>
<polyline points="309.8,120.4 317.8,120.4 317.8,48 611.7,48 611.7,120.4 619.7,120.4" fill="none" stroke="#445" stroke-width="1.5"/>
<polyline points="619.7,120.4 603.7,120.4" fill="none" stroke="#445" stroke-width="1.5"/>
<polyline points="309.8,278.7 317.8,278.7 317.8,120.4 325.8,120.4" fill="none" stroke="#445" stroke-width="1.5"/>
<polyline points="309.8,278.7 317.8,278.7 317.8,192.9 611.7,192.9 611.7,120.4 619.7,120.4" fill="none" stroke="#445" stroke-width="1.5"/>
<polyline points="464.7,207.6 464.7,184.9" fill="none" stroke="#445" stroke-width="1.5"/>
<circle cx="464.7" cy="192.9" r="4" fill="none" stroke="#d7263d" stroke-width="2"/>
</g>
<text x="8" y="16">golden-okie · container @ focus (zoom 1.99) · render scale 100% of screen px</text>
<text x="8" y="395.9" font-size="10" fill="#555">edge-crossing: 1   shared-corridor: 0   label-clearance: 0   container-border-run: 0</text>
<text x="8" y="409.9" font-size="10" fill="#555">endpoint-crowding: 0   short-route: 0   short-leg: 0</text>
</svg>
